<mxfile host="app.diagrams.net" agent="Mozilla/5.0 (Windows NT 10.0; Win64; x64) AppleWebKit/537.36 (KHTML, like Gecko) Chrome/138.0.0.0 Safari/537.36 Edg/138.0.0.0" version="28.0.6">
  <diagram name="Page-1" id="c7558073-3199-34d8-9f00-42111426c3f3">
    <mxGraphModel dx="1426" dy="856" grid="1" gridSize="10" guides="1" tooltips="1" connect="1" arrows="1" fold="1" page="1" pageScale="1" pageWidth="826" pageHeight="1169" background="none" math="0" shadow="0">
      <root>
        <mxCell id="0" />
        <mxCell id="1" parent="0" />
        <mxCell id="C31WxNjCbk0ZrxlacB-T-103" value="" style="shape=image;verticalLabelPosition=bottom;labelBackgroundColor=default;verticalAlign=top;aspect=fixed;imageAspect=0;image=data:image/png,iVBORw0KGgoAAAANSUhEUgAAACoAAAA5CAMAAAEAWHnKAAAAAXNSR0IArs4c6QAAAARnQU1BAACxjwv8YQUAAAA/UExURQAAAAAAAAAAAAAAAAAAAAAAAAAAAAAAAAAAAAAAAAAAAAAAAAAAAAAAAAAAAAAAAAAAAAAAAAAAAAAAAAAAALMlgi8AAAAUdFJOUwAIEIcglzCfOKdAt1jPaHDf54Dv4vA5JAAAAAlwSFlzAAAXEQAAFxEByibzPwAAAQdJREFUOE/tlNsOgjAQRAfEu1WE+f9vNe1KW7YrQgIPJs5DszkMs2VJC2hR1l2qI0smrSaswdCnUrA8mxIZoymvC40lwJiSquVyQ6RL4V0sO8JJdc9a5/0SznZsVKhitbb01zeOpPytXE9PFevIPk4gY2MCoKU9ZNq87GRbLVYZ7Gd00wB4kKcSlROqA2wVFawD/OCKAA8vRQDJA2oVEKCWCWFsCcBxKT5r9oGaCVtAXC0I7DX4ax01D1deSlreZJ+DkY5iEhWHY6z6nWjdiVrd4Jxunxm/tRdjf/DbmGwfjV61fpppZJxU+PA5xuFGauddvDL9Lcxt2LGmhman/oJxyfCr60zjC0BSF19ImznkAAAAAElFTkSuQmCC;" vertex="1" parent="1">
          <mxGeometry x="70" y="540" width="42" height="57" as="geometry" />
        </mxCell>
        <mxCell id="C31WxNjCbk0ZrxlacB-T-104" value="" style="verticalLabelPosition=bottom;outlineConnect=0;align=center;dashed=0;html=1;verticalAlign=top;shape=mxgraph.pid.compressors.compressor;rotation=-90;strokeWidth=2;" vertex="1" parent="1">
          <mxGeometry x="562" y="580" width="50" height="50" as="geometry" />
        </mxCell>
        <mxCell id="C31WxNjCbk0ZrxlacB-T-105" value="&lt;p style=&quot;language:zh-CN;margin-top:0pt;margin-bottom:0pt;margin-left:0in;&#xa;text-align:left;direction:ltr;unicode-bidi:embed;mso-line-break-override:none;&#xa;word-break:normal;punctuation-wrap:hanging&quot;&gt;&lt;span style=&quot;font-size:10.0pt;&#xa;font-family:Calibri;mso-ascii-font-family:Calibri;mso-fareast-font-family:宋体;&#xa;mso-bidi-font-family:+mn-cs;mso-ascii-theme-font:minor-latin;mso-fareast-theme-font:&#xa;minor-fareast;mso-bidi-theme-font:minor-bidi;color:black;mso-color-index:1;&#xa;mso-font-kerning:12.0pt;language:en-US;font-weight:normal;mso-style-textfill-type:&#xa;solid;mso-style-textfill-fill-themecolor:text1;mso-style-textfill-fill-color:&#xa;black;mso-style-textfill-fill-alpha:100.0%&quot;&gt;data_in&lt;/span&gt;&lt;span style=&quot;font-size:10.0pt;font-family:Calibri;mso-ascii-font-family:Calibri;&#xa;mso-fareast-font-family:宋体;mso-bidi-font-family:+mn-cs;mso-ascii-theme-font:&#xa;minor-latin;mso-fareast-theme-font:minor-fareast;mso-bidi-theme-font:minor-bidi;&#xa;color:black;mso-color-index:1;mso-font-kerning:12.0pt;language:en-US;&#xa;font-weight:normal;mso-style-textfill-type:solid;mso-style-textfill-fill-themecolor:&#xa;text1;mso-style-textfill-fill-color:black;mso-style-textfill-fill-alpha:100.0%&quot;&gt;[n_1]&lt;/span&gt;&lt;/p&gt;" style="text;whiteSpace=wrap;html=1;fontFamily=Helvetica;fontSize=12;fontColor=default;" vertex="1" parent="1">
          <mxGeometry x="96" y="650" width="100" height="40" as="geometry" />
        </mxCell>
        <mxCell id="C31WxNjCbk0ZrxlacB-T-106" value="" style="verticalLabelPosition=bottom;verticalAlign=top;html=1;shape=mxgraph.flowchart.summing_function;strokeWidth=2;" vertex="1" parent="1">
          <mxGeometry x="207" y="650" width="50" height="50" as="geometry" />
        </mxCell>
        <mxCell id="C31WxNjCbk0ZrxlacB-T-107" value="" style="edgeStyle=elbowEdgeStyle;elbow=vertical;strokeColor=#990000;strokeWidth=2;exitX=0;exitY=0.6;exitDx=0;exitDy=0;exitPerimeter=0;" edge="1" parent="1" source="C31WxNjCbk0ZrxlacB-T-105">
          <mxGeometry width="100" height="100" relative="1" as="geometry">
            <mxPoint x="112" y="674.44" as="sourcePoint" />
            <mxPoint x="206" y="674" as="targetPoint" />
          </mxGeometry>
        </mxCell>
        <mxCell id="C31WxNjCbk0ZrxlacB-T-108" value="&lt;p style=&quot;language:zh-CN;margin-top:0pt;margin-bottom:0pt;margin-left:0in;&lt;br/&gt;text-align:left;direction:ltr;unicode-bidi:embed;mso-line-break-override:none;&lt;br/&gt;word-break:normal;punctuation-wrap:hanging&quot;&gt;&lt;span style=&quot;font-size: 10pt; font-family: Calibri;&quot;&gt;comp_slope&lt;/span&gt;&lt;span style=&quot;font-size: 10pt; font-family: Calibri;&quot;&gt;[n_1]&lt;/span&gt;&lt;/p&gt;" style="text;whiteSpace=wrap;html=1;fontFamily=Helvetica;fontSize=12;fontColor=default;" vertex="1" parent="1">
          <mxGeometry x="91" y="700" width="100" height="40" as="geometry" />
        </mxCell>
        <mxCell id="C31WxNjCbk0ZrxlacB-T-109" value="" style="edgeStyle=elbowEdgeStyle;elbow=vertical;strokeColor=#990000;strokeWidth=2;exitX=1;exitY=0.5;exitDx=0;exitDy=0;entryX=0.5;entryY=1;entryDx=0;entryDy=0;entryPerimeter=0;" edge="1" parent="1" source="C31WxNjCbk0ZrxlacB-T-108" target="C31WxNjCbk0ZrxlacB-T-106">
          <mxGeometry width="100" height="100" relative="1" as="geometry">
            <mxPoint x="186" y="700" as="sourcePoint" />
            <mxPoint x="296" y="700" as="targetPoint" />
            <Array as="points">
              <mxPoint x="216" y="720" />
            </Array>
          </mxGeometry>
        </mxCell>
        <mxCell id="C31WxNjCbk0ZrxlacB-T-110" value="" style="edgeStyle=elbowEdgeStyle;elbow=vertical;strokeColor=#990000;strokeWidth=2;exitX=0;exitY=0.6;exitDx=0;exitDy=0;exitPerimeter=0;" edge="1" parent="1">
          <mxGeometry width="100" height="100" relative="1" as="geometry">
            <mxPoint x="256" y="674" as="sourcePoint" />
            <mxPoint x="366" y="674" as="targetPoint" />
          </mxGeometry>
        </mxCell>
        <mxCell id="C31WxNjCbk0ZrxlacB-T-111" value="&lt;p style=&quot;language:zh-CN;margin-top:0pt;margin-bottom:0pt;margin-left:0in;&lt;br/&gt;text-align:left;direction:ltr;unicode-bidi:embed;mso-line-break-override:none;&lt;br/&gt;word-break:normal;punctuation-wrap:hanging&quot;&gt;&lt;span style=&quot;font-size: 13.3333px;&quot;&gt;inv_flag&lt;/span&gt;&lt;/p&gt;" style="text;whiteSpace=wrap;html=1;fontFamily=Helvetica;fontSize=12;fontColor=default;" vertex="1" parent="1">
          <mxGeometry x="282" y="650" width="100" height="40" as="geometry" />
        </mxCell>
        <mxCell id="C31WxNjCbk0ZrxlacB-T-112" value="AND" style="shape=or;whiteSpace=wrap;html=1;strokeWidth=2;" vertex="1" parent="1">
          <mxGeometry x="326" y="490" width="75" height="80" as="geometry" />
        </mxCell>
        <mxCell id="C31WxNjCbk0ZrxlacB-T-135" value="" style="edgeStyle=orthogonalEdgeStyle;rounded=0;orthogonalLoop=1;jettySize=auto;html=1;entryX=0;entryY=0.65;entryDx=0;entryDy=3;entryPerimeter=0;strokeColor=default;strokeWidth=2;align=center;verticalAlign=middle;fontFamily=Helvetica;fontSize=11;fontColor=default;labelBackgroundColor=default;endArrow=none;endFill=0;" edge="1" parent="1" target="C31WxNjCbk0ZrxlacB-T-133">
          <mxGeometry relative="1" as="geometry">
            <mxPoint x="320" y="430" as="sourcePoint" />
          </mxGeometry>
        </mxCell>
        <mxCell id="C31WxNjCbk0ZrxlacB-T-113" value="Mux" style="shadow=0;dashed=0;align=center;html=1;strokeWidth=2;shape=mxgraph.electrical.abstract.mux2;whiteSpace=wrap;" vertex="1" parent="1">
          <mxGeometry x="320" y="240" width="80" height="120" as="geometry" />
        </mxCell>
        <mxCell id="C31WxNjCbk0ZrxlacB-T-115" value="&lt;p style=&quot;language:zh-CN;margin-top:0pt;margin-bottom:0pt;margin-left:0in;&lt;br/&gt;text-align:center;direction:ltr;unicode-bidi:embed;mso-line-break-override:&lt;br/&gt;none;word-break:normal;punctuation-wrap:hanging&quot;&gt;&lt;span style=&quot;font-size: 10pt; color: black;&quot;&gt;MED-FILTER P&lt;/span&gt;&lt;/p&gt;" style="rounded=0;whiteSpace=wrap;html=1;strokeColor=default;strokeWidth=3;align=center;verticalAlign=middle;fontFamily=Helvetica;fontSize=12;fontColor=default;fontStyle=1;fillColor=#FFFFFF;" vertex="1" parent="1">
          <mxGeometry x="160" y="230" width="120" height="40" as="geometry" />
        </mxCell>
        <mxCell id="C31WxNjCbk0ZrxlacB-T-116" value="&lt;p style=&quot;margin-top: 0pt; margin-bottom: 0pt; margin-left: 0in; direction: ltr; unicode-bidi: embed; word-break: normal;&quot;&gt;&lt;font face=&quot;等线&quot;&gt;&lt;span style=&quot;font-size: 13.3333px;&quot;&gt;WINDOW COUNTER&lt;/span&gt;&lt;/font&gt;&lt;/p&gt;" style="rounded=0;whiteSpace=wrap;html=1;strokeColor=default;strokeWidth=3;align=center;verticalAlign=middle;fontFamily=Helvetica;fontSize=12;fontColor=default;fontStyle=1;fillColor=#FFFFFF;" vertex="1" parent="1">
          <mxGeometry x="350" y="130" width="291" height="40" as="geometry" />
        </mxCell>
        <mxCell id="C31WxNjCbk0ZrxlacB-T-118" value="&lt;p style=&quot;language:zh-CN;margin-top:0pt;margin-bottom:0pt;margin-left:0in;&lt;br/&gt;text-align:center;direction:ltr;unicode-bidi:embed;mso-line-break-override:&lt;br/&gt;none;word-break:normal;punctuation-wrap:hanging&quot;&gt;&lt;span style=&quot;font-size: 10pt; color: black;&quot;&gt;MED-FILTER N&lt;/span&gt;&lt;/p&gt;" style="rounded=0;whiteSpace=wrap;html=1;strokeColor=default;strokeWidth=3;align=center;verticalAlign=middle;fontFamily=Helvetica;fontSize=12;fontColor=default;fontStyle=1;fillColor=#FFFFFF;" vertex="1" parent="1">
          <mxGeometry x="160" y="320" width="120" height="40" as="geometry" />
        </mxCell>
        <mxCell id="C31WxNjCbk0ZrxlacB-T-119" style="edgeStyle=orthogonalEdgeStyle;rounded=0;orthogonalLoop=1;jettySize=auto;html=1;exitX=1;exitY=0.5;exitDx=0;exitDy=0;entryX=0;entryY=0.65;entryDx=0;entryDy=3;entryPerimeter=0;strokeWidth=2;shape=wire;dashed=1;endArrow=none;endFill=0;" edge="1" parent="1" source="C31WxNjCbk0ZrxlacB-T-118" target="C31WxNjCbk0ZrxlacB-T-113">
          <mxGeometry relative="1" as="geometry" />
        </mxCell>
        <mxCell id="C31WxNjCbk0ZrxlacB-T-121" style="edgeStyle=orthogonalEdgeStyle;rounded=0;orthogonalLoop=1;jettySize=auto;html=1;exitX=1;exitY=0.5;exitDx=0;exitDy=0;entryX=0;entryY=0.21666666666666667;entryDx=0;entryDy=3;entryPerimeter=0;strokeWidth=2;shape=wire;dashed=1;endArrow=none;endFill=0;" edge="1" parent="1" source="C31WxNjCbk0ZrxlacB-T-115" target="C31WxNjCbk0ZrxlacB-T-113">
          <mxGeometry relative="1" as="geometry">
            <mxPoint x="300" y="319" as="sourcePoint" />
            <mxPoint x="322" y="300" as="targetPoint" />
          </mxGeometry>
        </mxCell>
        <mxCell id="C31WxNjCbk0ZrxlacB-T-122" value="&lt;p style=&quot;language:zh-CN;margin-top:0pt;margin-bottom:0pt;margin-left:0in;&lt;br/&gt;text-align:left;direction:ltr;unicode-bidi:embed;mso-line-break-override:none;&lt;br/&gt;word-break:normal;punctuation-wrap:hanging&quot;&gt;&lt;span style=&quot;font-size: 13.3333px;&quot;&gt;med_sel&lt;/span&gt;&lt;/p&gt;" style="text;whiteSpace=wrap;html=1;fontFamily=Helvetica;fontSize=12;fontColor=default;" vertex="1" parent="1">
          <mxGeometry x="320" y="360" width="100" height="40" as="geometry" />
        </mxCell>
        <mxCell id="C31WxNjCbk0ZrxlacB-T-123" value="" style="verticalLabelPosition=bottom;shadow=0;dashed=0;align=center;html=1;verticalAlign=middle;shape=mxgraph.electrical.logic_gates.d_type_flip-flop;strokeColor=default;strokeWidth=2;fontFamily=Helvetica;fontSize=12;fontColor=default;fillColor=default;" vertex="1" parent="1">
          <mxGeometry x="191" y="780" width="100" height="80" as="geometry" />
        </mxCell>
        <mxCell id="C31WxNjCbk0ZrxlacB-T-124" value="&lt;p style=&quot;language:zh-CN;margin-top:0pt;margin-bottom:0pt;margin-left:0in;&lt;br/&gt;text-align:left;direction:ltr;unicode-bidi:embed;mso-line-break-override:none;&lt;br/&gt;word-break:normal;punctuation-wrap:hanging&quot;&gt;&lt;span style=&quot;font-size: 13.3333px;&quot;&gt;MED_SEL&lt;/span&gt;&lt;/p&gt;" style="text;whiteSpace=wrap;html=1;fontFamily=Helvetica;fontSize=12;fontColor=default;" vertex="1" parent="1">
          <mxGeometry x="320" y="810" width="100" height="40" as="geometry" />
        </mxCell>
        <mxCell id="C31WxNjCbk0ZrxlacB-T-127" value="" style="edgeStyle=elbowEdgeStyle;elbow=vertical;strokeColor=#990000;strokeWidth=2;entryX=1;entryY=0.75;entryDx=0;entryDy=0;exitX=1;exitY=0.75;exitDx=0;exitDy=0;exitPerimeter=0;" edge="1" parent="1" source="C31WxNjCbk0ZrxlacB-T-123">
          <mxGeometry width="100" height="100" relative="1" as="geometry">
            <mxPoint x="300" y="840" as="sourcePoint" />
            <mxPoint x="370" y="839.58" as="targetPoint" />
            <Array as="points" />
          </mxGeometry>
        </mxCell>
        <mxCell id="C31WxNjCbk0ZrxlacB-T-128" value="" style="edgeStyle=elbowEdgeStyle;elbow=vertical;strokeColor=#990000;strokeWidth=2;endArrow=none;endFill=0;" edge="1" parent="1">
          <mxGeometry width="100" height="100" relative="1" as="geometry">
            <mxPoint x="310" y="840" as="sourcePoint" />
            <mxPoint x="160" y="800" as="targetPoint" />
            <Array as="points">
              <mxPoint x="270" y="750" />
            </Array>
          </mxGeometry>
        </mxCell>
        <mxCell id="C31WxNjCbk0ZrxlacB-T-129" value="" style="edgeStyle=elbowEdgeStyle;elbow=vertical;strokeColor=#990000;strokeWidth=2;entryX=0;entryY=0.25;entryDx=0;entryDy=0;entryPerimeter=0;" edge="1" parent="1" target="C31WxNjCbk0ZrxlacB-T-123">
          <mxGeometry width="100" height="100" relative="1" as="geometry">
            <mxPoint x="160" y="800" as="sourcePoint" />
            <mxPoint x="230" y="810" as="targetPoint" />
            <Array as="points">
              <mxPoint x="170" y="800" />
            </Array>
          </mxGeometry>
        </mxCell>
        <mxCell id="C31WxNjCbk0ZrxlacB-T-130" value="" style="edgeStyle=elbowEdgeStyle;elbow=vertical;strokeColor=#990000;strokeWidth=2;entryX=0.017;entryY=0.754;entryDx=0;entryDy=0;entryPerimeter=0;" edge="1" parent="1" target="C31WxNjCbk0ZrxlacB-T-123">
          <mxGeometry width="100" height="100" relative="1" as="geometry">
            <mxPoint x="130" y="840" as="sourcePoint" />
            <mxPoint x="161" y="840" as="targetPoint" />
            <Array as="points">
              <mxPoint x="180" y="840" />
            </Array>
          </mxGeometry>
        </mxCell>
        <mxCell id="C31WxNjCbk0ZrxlacB-T-131" value="&lt;p style=&quot;language:zh-CN;margin-top:0pt;margin-bottom:0pt;margin-left:0in;&lt;br/&gt;text-align:left;direction:ltr;unicode-bidi:embed;mso-line-break-override:none;&lt;br/&gt;word-break:normal;punctuation-wrap:hanging&quot;&gt;&lt;span style=&quot;font-size: 13.3333px;&quot;&gt;preamble_detect&lt;/span&gt;&lt;/p&gt;" style="text;whiteSpace=wrap;html=1;fontFamily=Helvetica;fontSize=12;fontColor=default;" vertex="1" parent="1">
          <mxGeometry x="450" y="400" width="110" height="40" as="geometry" />
        </mxCell>
        <mxCell id="C31WxNjCbk0ZrxlacB-T-133" value="Mux" style="shadow=0;dashed=0;align=center;html=1;strokeWidth=2;shape=mxgraph.electrical.abstract.mux2;whiteSpace=wrap;" vertex="1" parent="1">
          <mxGeometry x="455.5" y="280" width="80" height="120" as="geometry" />
        </mxCell>
        <mxCell id="C31WxNjCbk0ZrxlacB-T-134" style="edgeStyle=orthogonalEdgeStyle;rounded=0;orthogonalLoop=1;jettySize=auto;html=1;exitX=1;exitY=0.5;exitDx=0;exitDy=-5;exitPerimeter=0;entryX=0;entryY=0.21666666666666667;entryDx=0;entryDy=3;entryPerimeter=0;strokeColor=default;strokeWidth=2;align=center;verticalAlign=middle;fontFamily=Helvetica;fontSize=11;fontColor=default;labelBackgroundColor=default;endArrow=none;endFill=0;" edge="1" parent="1" source="C31WxNjCbk0ZrxlacB-T-113" target="C31WxNjCbk0ZrxlacB-T-133">
          <mxGeometry relative="1" as="geometry" />
        </mxCell>
        <mxCell id="C31WxNjCbk0ZrxlacB-T-136" value="&lt;p style=&quot;language:zh-CN;margin-top:0pt;margin-bottom:0pt;margin-left:0in;&lt;br/&gt;text-align:center;direction:ltr;unicode-bidi:embed;mso-line-break-override:&lt;br/&gt;none;word-break:normal;punctuation-wrap:hanging&quot;&gt;&lt;span style=&quot;font-size: 10pt; color: black;&quot;&gt;MED-FILTER N&lt;/span&gt;&lt;/p&gt;" style="rounded=0;whiteSpace=wrap;html=1;strokeColor=default;strokeWidth=3;align=center;verticalAlign=middle;fontFamily=Helvetica;fontSize=12;fontColor=default;fontStyle=1;fillColor=#FFFFFF;" vertex="1" parent="1">
          <mxGeometry x="162" y="400" width="120" height="40" as="geometry" />
        </mxCell>
      </root>
    </mxGraphModel>
  </diagram>
</mxfile>
